
<svg xmlns="http://www.w3.org/2000/svg" viewBox="0 0 24 24" fill="currentColor" class="w-5 h-5">
  <path d="M12 2C6.478 2 2 6.477 2 12c0 4.418 2.865 8.166 6.839 9.489.5.092.683-.217.683-.484 0-.238-.009-.868-.014-1.703-2.782.605-3.369-1.34-3.369-1.34-.454-1.154-1.11-1.462-1.11-1.462-.908-.62.069-.607.069-.607 1.003.07 1.53 1.03 1.53 1.03.893 1.53 2.341 1.088 2.91.832.092-.647.35-1.088.636-1.338-2.22-.254-4.555-1.11-4.555-4.944 0-1.091.39-1.985 1.03-2.682-.103-.253-.447-1.272.097-2.65 0 0 .84-.269 2.75 1.025A9.579 9.579 0 0112 6.844a9.58 9.58 0 012.506.337c1.91-1.294 2.75-1.025 2.75-1.025.545 1.378.201 2.397.099 2.65.642.697 1.029 1.591 1.029 2.682 0 3.842-2.338 4.687-4.566 4.936.36.309.682.921.682 1.854 0 1.338-.012 2.42-.012 2.75 0 .27.181.58.688.482C19.135 20.165 22 16.418 22 12c0-5.523-4.478-10-10-10z" />
</svg>
